<?xml version="1.0" standalone="no"?>
<!DOCTYPE svg PUBLIC "-//W3C//DTD SVG 20010904//EN"
 "http://www.w3.org/TR/2001/REC-SVG-20010904/DTD/svg10.dtd">
<svg version="1.0" xmlns="http://www.w3.org/2000/svg"
 width="512.000000pt" height="512.000000pt" viewBox="0 0 512.000000 512.000000"
 preserveAspectRatio="xMidYMid meet">
<metadata>
Created by potrace 1.16, written by Peter Selinger 2001-2019
</metadata>
<g transform="translate(0.000000,512.000000) scale(0.100000,-0.100000)"
fill="#000000" stroke="none">
<path d="M1630 5100 c-20 -20 -20 -33 -20 -805 l0 -785 -785 0 c-772 0 -785 0
-805 -20 -20 -20 -20 -33 -20 -930 0 -897 0 -910 20 -930 20 -20 33 -20 805
-20 l785 0 0 -785 c0 -772 0 -785 20 -805 20 -20 33 -20 930 -20 897 0 910 0
930 20 20 20 20 33 20 805 l0 785 785 0 c772 0 785 0 805 20 20 20 20 33 20
930 0 897 0 910 -20 930 -20 20 -33 20 -805 20 l-785 0 0 785 c0 772 0 785
-20 805 -20 20 -33 20 -930 20 -897 0 -910 0 -930 -20z m1720 -920 l0 -781 25
-24 24 -25 781 0 780 0 0 -790 0 -790 -780 0 -781 0 -24 -25 -25 -24 0 -781 0
-780 -790 0 -790 0 0 780 0 781 -25 24 -24 25 -781 0 -780 0 0 790 0 790 780
0 781 0 24 25 25 24 0 781 0 780 790 0 790 0 0 -780z"/>
</g>
</svg>
